<?xml version="1.0" standalone="no"?>
<!DOCTYPE svg PUBLIC "-//W3C//DTD SVG 20010904//EN"
 "http://www.w3.org/TR/2001/REC-SVG-20010904/DTD/svg10.dtd">
<svg version="1.0" xmlns="http://www.w3.org/2000/svg"
 width="700.000000pt" height="700.000000pt" viewBox="0 0 700.000000 700.000000"
 preserveAspectRatio="xMidYMid meet">

<g transform="translate(0.000000,700.000000) scale(0.100000,-0.100000)"
fill="#333333" stroke="none">
<path d="M1200 4914 c-148 -29 -302 -130 -386 -254 -45 -66 -83 -169 -95 -257
-6 -50 -9 -358 -7 -858 3 -723 5 -784 22 -835 89 -270 304 -430 577 -430 159
0 282 48 399 157 95 87 167 219 184 333 6 42 9 46 46 57 21 7 61 26 88 42 l49
29 189 -189 c202 -202 216 -211 262 -169 21 20 27 37 22 70 -1 8 -85 99 -188
202 l-186 187 20 23 c58 65 101 176 110 288 16 185 -58 361 -202 480 -50 41
-160 100 -188 100 -14 0 -16 26 -16 258 0 286 -8 338 -63 450 -40 80 -136 186
-211 231 -100 60 -178 83 -296 86 -58 2 -116 1 -130 -1z m225 -139 c135 -36
242 -124 303 -252 l37 -78 3 -261 3 -261 -77 -7 c-170 -16 -321 -99 -408 -225
l-29 -41 -208 0 -209 0 0 363 c0 388 4 427 53 526 30 62 126 162 185 194 102
55 233 71 347 42z m458 -1019 c113 -40 191 -112 245 -225 68 -141 53 -296 -39
-425 -150 -209 -466 -236 -648 -54 -100 100 -145 238 -123 370 29 167 158 311
309 347 76 18 184 12 256 -13z"/>
<path d="M3010 4050 l0 -390 100 0 100 0 0 158 c0 129 3 163 18 192 31 62 108
80 159 36 l28 -24 3 -181 3 -181 101 0 100 0 -4 203 c-3 179 -6 207 -24 247
-56 122 -204 164 -338 96 l-46 -23 0 128 0 129 -100 0 -100 0 0 -390z"/>
<path d="M2250 4031 l0 -371 100 0 100 0 0 95 0 95 68 0 c219 1 339 63 378
197 42 145 -33 283 -179 329 -38 12 -108 17 -259 21 l-208 6 0 -372z m395 187
c47 -21 67 -85 45 -142 -15 -40 -58 -56 -155 -56 l-85 0 0 105 0 105 85 0 c46
0 96 -5 110 -12z"/>
<path d="M3874 4225 c-50 -11 -115 -35 -132 -50 -2 -1 12 -32 29 -68 l33 -66
36 19 c87 44 197 34 225 -20 8 -16 15 -31 15 -33 0 -2 -46 -7 -102 -10 -128
-8 -169 -20 -213 -58 -58 -51 -68 -133 -24 -204 54 -90 232 -111 319 -39 l30
26 0 -31 0 -31 96 0 96 0 -4 198 c-3 187 -4 200 -28 246 -32 64 -80 101 -155
121 -71 18 -138 18 -221 0z m206 -364 c0 -45 -43 -81 -96 -81 -46 0 -84 25
-84 55 0 8 9 24 20 35 16 16 33 20 90 20 l70 0 0 -29z"/>
<path d="M4715 4231 c-36 -9 -91 -37 -100 -51 -12 -20 -25 -10 -25 20 l0 30
-90 0 -90 0 0 -285 0 -285 95 0 95 0 0 138 c0 75 5 154 10 174 16 55 60 88
121 88 l49 0 0 90 c0 99 1 97 -65 81z"/>
<path d="M5160 4229 c-19 -6 -50 -22 -67 -35 l-33 -25 0 30 0 31 -95 0 -95 0
0 -285 0 -285 100 0 100 0 0 161 c0 125 3 168 15 194 28 58 104 74 146 29 23
-25 24 -31 27 -205 l3 -179 100 0 99 0 0 165 c0 175 8 212 49 235 30 15 76 12
100 -7 32 -26 40 -79 41 -245 l0 -148 96 0 95 0 -3 218 c-3 196 -5 220 -23
251 -70 119 -243 145 -361 55 -36 -28 -46 -31 -50 -19 -20 50 -164 88 -244 64z"/>
<path d="M6130 4234 c-56 -11 -152 -47 -156 -59 -3 -7 8 -40 25 -73 l30 -60
43 21 c89 44 217 20 226 -42 3 -19 -1 -21 -50 -21 -88 -1 -186 -17 -226 -37
-74 -39 -102 -125 -68 -207 48 -116 267 -142 348 -42 17 21 18 21 18 -16 l0
-38 90 0 90 0 0 188 c0 103 -5 203 -10 223 -28 102 -113 157 -250 164 -47 2
-96 1 -110 -1z m170 -378 c0 -46 -37 -76 -93 -76 -67 0 -99 49 -60 92 13 14
31 18 85 18 l68 0 0 -34z"/>
<path d="M4470 3160 l0 -129 -35 23 c-66 45 -167 45 -256 1 -94 -48 -143 -137
-143 -260 0 -88 20 -145 69 -203 73 -87 230 -115 328 -60 l47 27 0 -25 c0 -24
1 -24 95 -24 l95 0 0 390 0 390 -100 0 -100 0 0 -130z m-34 -264 c31 -31 34
-39 34 -92 0 -97 -41 -144 -127 -144 -26 0 -43 8 -67 33 -87 86 -35 237 81
237 38 0 50 -5 79 -34z"/>
<path d="M2638 3245 c-5 -5 -8 -172 -8 -372 l0 -363 105 0 105 0 0 100 0 100
58 0 57 0 68 -100 68 -100 110 0 111 0 -76 110 c-42 60 -76 113 -76 117 0 4
17 20 38 35 21 14 51 50 67 79 24 45 28 64 28 125 -1 59 -6 81 -29 124 -32 60
-89 104 -159 126 -55 17 -454 33 -467 19z m410 -190 c37 -31 48 -73 32 -120
-17 -50 -51 -65 -155 -65 l-85 0 0 105 0 105 89 0 c81 0 92 -2 119 -25z"/>
<path d="M3534 3075 c-50 -11 -115 -35 -132 -50 -2 -1 12 -32 29 -68 l33 -66
36 19 c87 44 197 34 225 -20 8 -16 15 -31 15 -33 0 -2 -46 -7 -102 -10 -128
-8 -169 -20 -213 -58 -58 -51 -68 -133 -24 -204 54 -90 232 -111 319 -39 l30
26 0 -31 0 -31 96 0 96 0 -4 198 c-3 187 -4 200 -28 246 -32 64 -80 101 -155
121 -71 18 -138 18 -221 0z m206 -364 c0 -45 -43 -81 -96 -81 -46 0 -84 25
-84 55 0 8 9 24 20 35 16 16 33 20 90 20 l70 0 0 -29z"/>
<path d="M4960 3084 c-56 -11 -152 -47 -156 -59 -3 -7 8 -40 25 -73 l30 -60
43 21 c89 44 217 20 226 -42 3 -19 -1 -21 -50 -21 -88 -1 -186 -17 -226 -37
-74 -39 -102 -125 -68 -207 48 -116 267 -142 348 -42 17 21 18 21 18 -16 l0
-38 90 0 90 0 0 188 c0 103 -5 203 -10 223 -28 102 -113 157 -250 164 -47 2
-96 1 -110 -1z m170 -378 c0 -46 -37 -76 -93 -76 -67 0 -99 49 -60 92 13 14
31 18 85 18 l68 0 0 -34z"/>
<path d="M5753 3076 c-22 -8 -55 -23 -72 -35 l-31 -22 0 30 0 31 -95 0 -95 0
0 -285 0 -285 100 0 100 0 0 155 c0 173 8 203 60 230 16 8 49 15 75 15 l45 0
0 90 c0 102 -1 103 -87 76z"/>
</g>
</svg>
